<mxfile host="Electron" agent="Mozilla/5.0 (Windows NT 10.0; Win64; x64) AppleWebKit/537.36 (KHTML, like Gecko) draw.io/24.7.17 Chrome/128.0.6613.36 Electron/32.0.1 Safari/537.36" version="24.7.17">
  <diagram name="Page-1" id="WNThJPib1K6qAUUVuiRz">
    <mxGraphModel dx="1100" dy="809" grid="1" gridSize="10" guides="1" tooltips="1" connect="1" arrows="1" fold="1" page="1" pageScale="1" pageWidth="827" pageHeight="1169" math="0" shadow="0">
      <root>
        <mxCell id="0" />
        <mxCell id="1" parent="0" />
        <mxCell id="H6Iv20205hCUPa1VpQTO-1" style="edgeStyle=orthogonalEdgeStyle;rounded=0;orthogonalLoop=1;jettySize=auto;html=1;exitX=0.5;exitY=1;exitDx=0;exitDy=0;entryX=0.5;entryY=0;entryDx=0;entryDy=0;" edge="1" parent="1" source="H6Iv20205hCUPa1VpQTO-2" target="H6Iv20205hCUPa1VpQTO-4">
          <mxGeometry relative="1" as="geometry" />
        </mxCell>
        <mxCell id="H6Iv20205hCUPa1VpQTO-2" value="&lt;font style=&quot;font-size: 14px;&quot;&gt;程序开始&lt;/font&gt;" style="ellipse;whiteSpace=wrap;html=1;" vertex="1" parent="1">
          <mxGeometry x="340" y="80" width="120" height="40" as="geometry" />
        </mxCell>
        <mxCell id="H6Iv20205hCUPa1VpQTO-3" style="edgeStyle=orthogonalEdgeStyle;rounded=0;orthogonalLoop=1;jettySize=auto;html=1;exitX=0.5;exitY=1;exitDx=0;exitDy=0;entryX=0.5;entryY=0;entryDx=0;entryDy=0;" edge="1" parent="1" source="H6Iv20205hCUPa1VpQTO-4">
          <mxGeometry relative="1" as="geometry">
            <mxPoint x="400" y="240" as="targetPoint" />
          </mxGeometry>
        </mxCell>
        <mxCell id="H6Iv20205hCUPa1VpQTO-4" value="&lt;font style=&quot;font-size: 14px;&quot;&gt;输入工资金额&lt;/font&gt;" style="shape=parallelogram;perimeter=parallelogramPerimeter;whiteSpace=wrap;html=1;fixedSize=1;" vertex="1" parent="1">
          <mxGeometry x="340" y="160" width="120" height="40" as="geometry" />
        </mxCell>
        <mxCell id="H6Iv20205hCUPa1VpQTO-64" value="" style="edgeStyle=orthogonalEdgeStyle;rounded=0;orthogonalLoop=1;jettySize=auto;html=1;" edge="1" parent="1" source="H6Iv20205hCUPa1VpQTO-18" target="H6Iv20205hCUPa1VpQTO-63">
          <mxGeometry relative="1" as="geometry" />
        </mxCell>
        <mxCell id="H6Iv20205hCUPa1VpQTO-18" value="输出tax&lt;br&gt;保留小数点后2位" style="shape=parallelogram;perimeter=parallelogramPerimeter;whiteSpace=wrap;html=1;fixedSize=1;align=center;verticalAlign=middle;fontFamily=Helvetica;fontSize=14;fontColor=default;labelBackgroundColor=default;resizable=1;fillColor=none;gradientColor=none;movable=1;rotatable=1;deletable=1;editable=1;locked=0;connectable=1;" vertex="1" parent="1">
          <mxGeometry x="320" y="800" width="160" height="40" as="geometry" />
        </mxCell>
        <mxCell id="H6Iv20205hCUPa1VpQTO-21" value="" style="edgeStyle=orthogonalEdgeStyle;rounded=0;orthogonalLoop=1;jettySize=auto;html=1;" edge="1" parent="1" source="H6Iv20205hCUPa1VpQTO-19" target="H6Iv20205hCUPa1VpQTO-20">
          <mxGeometry relative="1" as="geometry" />
        </mxCell>
        <mxCell id="H6Iv20205hCUPa1VpQTO-19" value="&lt;font style=&quot;font-size: 14px;&quot;&gt;将工资金额除以1000&lt;br&gt;得到变量t&lt;/font&gt;" style="rounded=0;whiteSpace=wrap;html=1;" vertex="1" parent="1">
          <mxGeometry x="330" y="240" width="140" height="40" as="geometry" />
        </mxCell>
        <mxCell id="H6Iv20205hCUPa1VpQTO-30" value="" style="edgeStyle=orthogonalEdgeStyle;rounded=0;orthogonalLoop=1;jettySize=auto;html=1;" edge="1" parent="1" source="H6Iv20205hCUPa1VpQTO-20" target="H6Iv20205hCUPa1VpQTO-22">
          <mxGeometry relative="1" as="geometry" />
        </mxCell>
        <mxCell id="H6Iv20205hCUPa1VpQTO-34" value="否" style="edgeLabel;html=1;align=center;verticalAlign=middle;resizable=0;points=[];" vertex="1" connectable="0" parent="H6Iv20205hCUPa1VpQTO-30">
          <mxGeometry x="0.5444" relative="1" as="geometry">
            <mxPoint x="10" y="4" as="offset" />
          </mxGeometry>
        </mxCell>
        <mxCell id="H6Iv20205hCUPa1VpQTO-39" value="" style="edgeStyle=orthogonalEdgeStyle;rounded=0;orthogonalLoop=1;jettySize=auto;html=1;" edge="1" parent="1" source="H6Iv20205hCUPa1VpQTO-20" target="H6Iv20205hCUPa1VpQTO-38">
          <mxGeometry relative="1" as="geometry" />
        </mxCell>
        <mxCell id="H6Iv20205hCUPa1VpQTO-40" value="是" style="edgeLabel;html=1;align=center;verticalAlign=middle;resizable=0;points=[];" vertex="1" connectable="0" parent="H6Iv20205hCUPa1VpQTO-39">
          <mxGeometry x="0.1" y="-1" relative="1" as="geometry">
            <mxPoint y="-9" as="offset" />
          </mxGeometry>
        </mxCell>
        <mxCell id="H6Iv20205hCUPa1VpQTO-20" value="&lt;font style=&quot;font-size: 14px;&quot;&gt;t=0&lt;br&gt;salary &amp;lt; 1000&lt;/font&gt;" style="rhombus;whiteSpace=wrap;html=1;" vertex="1" parent="1">
          <mxGeometry x="310" y="310" width="180" height="60" as="geometry" />
        </mxCell>
        <mxCell id="H6Iv20205hCUPa1VpQTO-32" style="edgeStyle=orthogonalEdgeStyle;rounded=0;orthogonalLoop=1;jettySize=auto;html=1;exitX=0.5;exitY=1;exitDx=0;exitDy=0;entryX=0.5;entryY=0;entryDx=0;entryDy=0;" edge="1" parent="1" source="H6Iv20205hCUPa1VpQTO-22" target="H6Iv20205hCUPa1VpQTO-23">
          <mxGeometry relative="1" as="geometry" />
        </mxCell>
        <mxCell id="H6Iv20205hCUPa1VpQTO-35" value="否" style="edgeLabel;html=1;align=center;verticalAlign=middle;resizable=0;points=[];" vertex="1" connectable="0" parent="H6Iv20205hCUPa1VpQTO-32">
          <mxGeometry x="-0.3667" y="1" relative="1" as="geometry">
            <mxPoint x="9" as="offset" />
          </mxGeometry>
        </mxCell>
        <mxCell id="H6Iv20205hCUPa1VpQTO-43" value="" style="edgeStyle=orthogonalEdgeStyle;rounded=0;orthogonalLoop=1;jettySize=auto;html=1;" edge="1" parent="1" source="H6Iv20205hCUPa1VpQTO-22" target="H6Iv20205hCUPa1VpQTO-42">
          <mxGeometry relative="1" as="geometry" />
        </mxCell>
        <mxCell id="H6Iv20205hCUPa1VpQTO-22" value="&lt;font style=&quot;font-size: 14px;&quot;&gt;t=1&lt;br&gt;salary &amp;lt; 2000&lt;/font&gt;" style="rhombus;whiteSpace=wrap;html=1;" vertex="1" parent="1">
          <mxGeometry x="310" y="390" width="180" height="60" as="geometry" />
        </mxCell>
        <mxCell id="H6Iv20205hCUPa1VpQTO-33" style="edgeStyle=orthogonalEdgeStyle;rounded=0;orthogonalLoop=1;jettySize=auto;html=1;exitX=0.5;exitY=1;exitDx=0;exitDy=0;entryX=0.5;entryY=0;entryDx=0;entryDy=0;" edge="1" parent="1" source="H6Iv20205hCUPa1VpQTO-23" target="H6Iv20205hCUPa1VpQTO-24">
          <mxGeometry relative="1" as="geometry" />
        </mxCell>
        <mxCell id="H6Iv20205hCUPa1VpQTO-36" value="否" style="edgeLabel;html=1;align=center;verticalAlign=middle;resizable=0;points=[];" vertex="1" connectable="0" parent="H6Iv20205hCUPa1VpQTO-33">
          <mxGeometry x="-0.4133" y="-4" relative="1" as="geometry">
            <mxPoint x="14" y="3" as="offset" />
          </mxGeometry>
        </mxCell>
        <mxCell id="H6Iv20205hCUPa1VpQTO-50" value="" style="edgeStyle=orthogonalEdgeStyle;rounded=0;orthogonalLoop=1;jettySize=auto;html=1;" edge="1" parent="1" source="H6Iv20205hCUPa1VpQTO-23" target="H6Iv20205hCUPa1VpQTO-45">
          <mxGeometry relative="1" as="geometry" />
        </mxCell>
        <mxCell id="H6Iv20205hCUPa1VpQTO-23" value="&lt;font style=&quot;font-size: 14px;&quot;&gt;t=2&lt;br&gt;salary &amp;lt; 3000&lt;/font&gt;" style="rhombus;whiteSpace=wrap;html=1;" vertex="1" parent="1">
          <mxGeometry x="310" y="470" width="180" height="60" as="geometry" />
        </mxCell>
        <mxCell id="H6Iv20205hCUPa1VpQTO-29" value="" style="edgeStyle=orthogonalEdgeStyle;rounded=0;orthogonalLoop=1;jettySize=auto;html=1;" edge="1" parent="1" source="H6Iv20205hCUPa1VpQTO-24" target="H6Iv20205hCUPa1VpQTO-25">
          <mxGeometry relative="1" as="geometry" />
        </mxCell>
        <mxCell id="H6Iv20205hCUPa1VpQTO-37" value="否" style="edgeLabel;html=1;align=center;verticalAlign=middle;resizable=0;points=[];" vertex="1" connectable="0" parent="H6Iv20205hCUPa1VpQTO-29">
          <mxGeometry x="0.7111" y="-1" relative="1" as="geometry">
            <mxPoint x="11" y="-1" as="offset" />
          </mxGeometry>
        </mxCell>
        <mxCell id="H6Iv20205hCUPa1VpQTO-51" value="" style="edgeStyle=orthogonalEdgeStyle;rounded=0;orthogonalLoop=1;jettySize=auto;html=1;" edge="1" parent="1" source="H6Iv20205hCUPa1VpQTO-24" target="H6Iv20205hCUPa1VpQTO-47">
          <mxGeometry relative="1" as="geometry" />
        </mxCell>
        <mxCell id="H6Iv20205hCUPa1VpQTO-24" value="&lt;font style=&quot;font-size: 14px;&quot;&gt;t=3&lt;br&gt;salary &amp;lt; 4000&lt;/font&gt;" style="rhombus;whiteSpace=wrap;html=1;" vertex="1" parent="1">
          <mxGeometry x="310" y="555" width="180" height="55" as="geometry" />
        </mxCell>
        <mxCell id="H6Iv20205hCUPa1VpQTO-52" value="" style="edgeStyle=orthogonalEdgeStyle;rounded=0;orthogonalLoop=1;jettySize=auto;html=1;" edge="1" parent="1" source="H6Iv20205hCUPa1VpQTO-25" target="H6Iv20205hCUPa1VpQTO-49">
          <mxGeometry relative="1" as="geometry" />
        </mxCell>
        <mxCell id="H6Iv20205hCUPa1VpQTO-54" value="" style="edgeStyle=orthogonalEdgeStyle;rounded=0;orthogonalLoop=1;jettySize=auto;html=1;" edge="1" parent="1" source="H6Iv20205hCUPa1VpQTO-25" target="H6Iv20205hCUPa1VpQTO-53">
          <mxGeometry relative="1" as="geometry" />
        </mxCell>
        <mxCell id="H6Iv20205hCUPa1VpQTO-55" value="否" style="edgeLabel;html=1;align=center;verticalAlign=middle;resizable=0;points=[];" vertex="1" connectable="0" parent="H6Iv20205hCUPa1VpQTO-54">
          <mxGeometry x="0.2933" relative="1" as="geometry">
            <mxPoint x="10" as="offset" />
          </mxGeometry>
        </mxCell>
        <mxCell id="H6Iv20205hCUPa1VpQTO-25" value="&lt;font style=&quot;font-size: 14px;&quot;&gt;t=4&lt;br&gt;salary &amp;lt; 5000&lt;/font&gt;" style="rhombus;whiteSpace=wrap;html=1;" vertex="1" parent="1">
          <mxGeometry x="310" y="630" width="180" height="60" as="geometry" />
        </mxCell>
        <mxCell id="H6Iv20205hCUPa1VpQTO-57" style="edgeStyle=orthogonalEdgeStyle;rounded=0;orthogonalLoop=1;jettySize=auto;html=1;exitX=0;exitY=0.5;exitDx=0;exitDy=0;entryX=0;entryY=0.5;entryDx=0;entryDy=0;" edge="1" parent="1" source="H6Iv20205hCUPa1VpQTO-38" target="H6Iv20205hCUPa1VpQTO-18">
          <mxGeometry relative="1" as="geometry">
            <mxPoint x="120" y="820" as="targetPoint" />
            <Array as="points">
              <mxPoint x="121" y="340" />
              <mxPoint x="121" y="820" />
            </Array>
          </mxGeometry>
        </mxCell>
        <mxCell id="H6Iv20205hCUPa1VpQTO-62" style="edgeStyle=orthogonalEdgeStyle;rounded=0;orthogonalLoop=1;jettySize=auto;html=1;exitX=0;exitY=0.5;exitDx=0;exitDy=0;" edge="1" parent="1" source="H6Iv20205hCUPa1VpQTO-38">
          <mxGeometry relative="1" as="geometry">
            <mxPoint x="120" y="340" as="targetPoint" />
          </mxGeometry>
        </mxCell>
        <mxCell id="H6Iv20205hCUPa1VpQTO-38" value="tax = 0.0" style="rounded=0;whiteSpace=wrap;html=1;" vertex="1" parent="1">
          <mxGeometry x="150" y="320" width="120" height="40" as="geometry" />
        </mxCell>
        <mxCell id="H6Iv20205hCUPa1VpQTO-41" value="是" style="edgeLabel;html=1;align=center;verticalAlign=middle;resizable=0;points=[];" vertex="1" connectable="0" parent="1">
          <mxGeometry x="288" y="410" as="geometry" />
        </mxCell>
        <mxCell id="H6Iv20205hCUPa1VpQTO-58" style="edgeStyle=orthogonalEdgeStyle;rounded=0;orthogonalLoop=1;jettySize=auto;html=1;exitX=0;exitY=0.5;exitDx=0;exitDy=0;" edge="1" parent="1" source="H6Iv20205hCUPa1VpQTO-42">
          <mxGeometry relative="1" as="geometry">
            <mxPoint x="120" y="420" as="targetPoint" />
          </mxGeometry>
        </mxCell>
        <mxCell id="H6Iv20205hCUPa1VpQTO-42" value="tax = &lt;br&gt;(salary - 1000) * 0.05" style="rounded=0;whiteSpace=wrap;html=1;" vertex="1" parent="1">
          <mxGeometry x="150" y="400" width="120" height="40" as="geometry" />
        </mxCell>
        <mxCell id="H6Iv20205hCUPa1VpQTO-44" value="是" style="edgeLabel;html=1;align=center;verticalAlign=middle;resizable=0;points=[];" vertex="1" connectable="0" parent="1">
          <mxGeometry x="288" y="490" as="geometry" />
        </mxCell>
        <mxCell id="H6Iv20205hCUPa1VpQTO-59" style="edgeStyle=orthogonalEdgeStyle;rounded=0;orthogonalLoop=1;jettySize=auto;html=1;exitX=0;exitY=0.5;exitDx=0;exitDy=0;" edge="1" parent="1" source="H6Iv20205hCUPa1VpQTO-45">
          <mxGeometry relative="1" as="geometry">
            <mxPoint x="120" y="500" as="targetPoint" />
          </mxGeometry>
        </mxCell>
        <mxCell id="H6Iv20205hCUPa1VpQTO-45" value="tax = 50 + &lt;br&gt;(salary - 2000) * 0.10" style="rounded=0;whiteSpace=wrap;html=1;" vertex="1" parent="1">
          <mxGeometry x="150" y="480" width="120" height="40" as="geometry" />
        </mxCell>
        <mxCell id="H6Iv20205hCUPa1VpQTO-46" value="是" style="edgeLabel;html=1;align=center;verticalAlign=middle;resizable=0;points=[];" vertex="1" connectable="0" parent="1">
          <mxGeometry x="288" y="572.5" as="geometry" />
        </mxCell>
        <mxCell id="H6Iv20205hCUPa1VpQTO-60" style="edgeStyle=orthogonalEdgeStyle;rounded=0;orthogonalLoop=1;jettySize=auto;html=1;exitX=0;exitY=0.5;exitDx=0;exitDy=0;" edge="1" parent="1" source="H6Iv20205hCUPa1VpQTO-47">
          <mxGeometry relative="1" as="geometry">
            <mxPoint x="120" y="583" as="targetPoint" />
          </mxGeometry>
        </mxCell>
        <mxCell id="H6Iv20205hCUPa1VpQTO-47" value="tax = 150 + &lt;br&gt;(salary - 3000) * 0.15" style="rounded=0;whiteSpace=wrap;html=1;" vertex="1" parent="1">
          <mxGeometry x="150" y="562.5" width="120" height="40" as="geometry" />
        </mxCell>
        <mxCell id="H6Iv20205hCUPa1VpQTO-48" value="是" style="edgeLabel;html=1;align=center;verticalAlign=middle;resizable=0;points=[];" vertex="1" connectable="0" parent="1">
          <mxGeometry x="288" y="650" as="geometry" />
        </mxCell>
        <mxCell id="H6Iv20205hCUPa1VpQTO-61" style="edgeStyle=orthogonalEdgeStyle;rounded=0;orthogonalLoop=1;jettySize=auto;html=1;exitX=0;exitY=0.5;exitDx=0;exitDy=0;" edge="1" parent="1" source="H6Iv20205hCUPa1VpQTO-49">
          <mxGeometry relative="1" as="geometry">
            <mxPoint x="120" y="660" as="targetPoint" />
          </mxGeometry>
        </mxCell>
        <mxCell id="H6Iv20205hCUPa1VpQTO-49" value="tax = 300 + &lt;br&gt;(salary - 4000) * 0.20" style="rounded=0;whiteSpace=wrap;html=1;" vertex="1" parent="1">
          <mxGeometry x="150" y="640" width="120" height="40" as="geometry" />
        </mxCell>
        <mxCell id="H6Iv20205hCUPa1VpQTO-56" value="" style="edgeStyle=orthogonalEdgeStyle;rounded=0;orthogonalLoop=1;jettySize=auto;html=1;" edge="1" parent="1" source="H6Iv20205hCUPa1VpQTO-53" target="H6Iv20205hCUPa1VpQTO-18">
          <mxGeometry relative="1" as="geometry" />
        </mxCell>
        <mxCell id="H6Iv20205hCUPa1VpQTO-53" value="tax = 500 + &lt;br&gt;(salary - 5000) * 0.25" style="rounded=0;whiteSpace=wrap;html=1;" vertex="1" parent="1">
          <mxGeometry x="340" y="720" width="120" height="40" as="geometry" />
        </mxCell>
        <mxCell id="H6Iv20205hCUPa1VpQTO-63" value="&lt;font style=&quot;font-size: 14px;&quot;&gt;程序结束&lt;/font&gt;" style="ellipse;whiteSpace=wrap;html=1;" vertex="1" parent="1">
          <mxGeometry x="340" y="880" width="120" height="40" as="geometry" />
        </mxCell>
      </root>
    </mxGraphModel>
  </diagram>
</mxfile>
